# Blender 4.2.2 LTS
# www.blender.org
mtllib RedArrow.mtl
g Cone_Cone
v -1.483215 -3.351053 -0.799454
v -1.503057 -3.363786 -0.820515
v -1.530846 -3.362079 -0.849044
v -1.565512 -3.345997 -0.883943
v -1.605725 -3.316159 -0.923873
v -1.649938 -3.273712 -0.967297
v -1.696453 -3.220286 -1.012548
v -1.743481 -3.157934 -1.057886
v -1.789217 -3.089053 -1.101570
v -1.831902 -3.016290 -1.141919
v -1.869895 -2.942442 -1.177385
v -1.901737 -2.870345 -1.206604
v -1.926205 -2.802771 -1.228452
v -1.942357 -2.742316 -1.242091
v -1.949573 -2.691304 -1.246996
v -1.947576 -2.651695 -1.242979
v -1.936442 -2.625011 -1.230194
v -1.916600 -2.612278 -1.209133
v -1.888812 -2.613986 -1.180604
v -1.854145 -2.630067 -1.145705
v -1.813933 -2.659905 -1.105776
v -1.769720 -2.702353 -1.062351
v -1.723205 -2.755779 -1.017100
v -1.676176 -2.818130 -0.971762
v -1.630441 -2.887011 -0.928079
v -1.587756 -2.959774 -0.887729
v -1.549762 -3.033623 -0.852263
v -1.517920 -3.105720 -0.823045
v -1.493453 -3.173294 -0.801196
v -1.477301 -3.233749 -0.787557
v -1.470085 -3.284760 -0.782652
v -1.472082 -3.324369 -0.786669
v -2.385375 -3.020509 -0.358752
v -0.794459 -2.923463 -1.886995
v -1.715359 -2.919757 -1.005579
v -0.780241 -2.942242 -1.872777
v -1.701140 -2.938536 -0.991361
v -0.766499 -2.963990 -1.858558
v -1.687398 -2.960284 -0.977143
v -0.753761 -2.987872 -1.844886
v -1.674660 -2.984165 -0.963470
v -0.742517 -3.012969 -1.832284
v -1.663417 -3.009263 -0.950869
v -0.733200 -3.038317 -1.821238
v -1.654099 -3.034611 -0.939822
v -0.726166 -3.062943 -1.812172
v -1.647066 -3.059237 -0.930756
v -0.721688 -3.085899 -1.805434
v -1.642587 -3.082193 -0.924019
v -0.719935 -3.106303 -1.801284
v -1.640835 -3.102597 -0.919868
v -0.720977 -3.123373 -1.799881
v -1.641876 -3.119666 -0.918465
v -0.724772 -3.136450 -1.801278
v -1.645672 -3.132744 -0.919862
v -0.731176 -3.145034 -1.805422
v -1.652075 -3.141327 -0.924007
v -0.739941 -3.148793 -1.812154
v -1.660841 -3.145087 -0.930739
v -0.750732 -3.147584 -1.821215
v -1.671631 -3.143878 -0.939800
v -0.763133 -3.141453 -1.832258
v -1.684032 -3.137747 -0.950842
v -0.776668 -3.130635 -1.844856
v -1.697567 -3.126929 -0.963440
v -0.790817 -3.115547 -1.858527
v -1.711716 -3.111841 -0.977111
v -0.805035 -3.096768 -1.872745
v -1.725935 -3.093062 -0.991329
v -0.818777 -3.075020 -1.886964
v -1.739677 -3.071314 -1.005548
v -0.831515 -3.051139 -1.900636
v -1.752414 -3.047432 -1.019221
v -0.842759 -3.026041 -1.913238
v -1.763658 -3.022335 -1.031822
v -0.852076 -3.000693 -1.924284
v -1.772976 -2.996987 -1.042868
v -0.859110 -2.976068 -1.933350
v -1.780009 -2.972361 -1.051934
v -0.863589 -2.953111 -1.940088
v -1.784488 -2.949405 -1.058672
v -0.865341 -2.932707 -1.944238
v -1.786240 -2.929000 -1.062822
v -0.864300 -2.915637 -1.945641
v -1.785199 -2.911931 -1.064226
v -0.860504 -2.902560 -1.944244
v -1.781403 -2.898854 -1.062829
v -0.854100 -2.893977 -1.940100
v -1.775000 -2.890270 -1.058684
v -0.845335 -2.890217 -1.933368
v -1.766234 -2.886511 -1.051952
v -0.834544 -2.891427 -1.924306
v -1.755444 -2.887720 -1.042891
v -0.822143 -2.897557 -1.913265
v -1.743042 -2.893851 -1.031849
v -0.808608 -2.908375 -1.900666
v -1.729508 -2.904669 -1.019250
vn -0.0408 -0.8376 0.5448
vn -0.2628 -0.9440 0.1995
vn -0.3893 -0.9203 -0.0374
vn -0.4619 -0.8678 -0.1833
vn -0.5097 -0.8145 -0.2771
vn -0.5461 -0.7649 -0.3417
vn -0.5772 -0.7181 -0.3888
vn -0.6065 -0.6721 -0.4248
vn -0.6363 -0.6245 -0.4530
vn -0.6683 -0.5721 -0.4754
vn -0.7047 -0.5108 -0.4924
vn -0.7476 -0.4334 -0.5032
vn -0.7993 -0.3273 -0.5040
vn -0.8590 -0.1680 -0.4837
vn -0.9068 0.0875 -0.4124
vn -0.8546 0.4662 -0.2287
vn -0.5864 0.8074 0.0643
vn -0.2532 0.9192 0.3017
vn -0.0191 0.9007 0.4340
vn 0.1271 0.8517 0.5084
vn 0.2222 0.8006 0.5564
vn 0.2881 0.7525 0.5923
vn 0.3365 0.7065 0.6226
vn 0.3739 0.6609 0.6507
vn 0.4036 0.6133 0.6790
vn 0.4276 0.5606 0.7092
vn 0.4467 0.4984 0.7430
vn 0.4600 0.4196 0.7825
vn 0.4646 0.3112 0.8291
vn 0.4505 0.1484 0.8803
vn 0.7169 0.0345 -0.6963
vn 0.3907 -0.1124 0.9136
vn 0.2274 -0.4963 0.8378
vn 0.4735 0.7308 0.4917
vn 0.5130 0.6727 0.5332
vn 0.5459 0.6162 0.5677
vn 0.5750 0.5580 0.5984
vn 0.6020 0.4945 0.6269
vn 0.6282 0.4204 0.6546
vn 0.6540 0.3277 0.6819
vn 0.6776 0.2020 0.7071
vn 0.6914 0.0172 0.7223
vn 0.6657 -0.2676 0.6966
vn 0.5218 -0.6538 0.5479
vn 0.2233 -0.9454 0.2372
vn -0.0613 -0.9963 -0.0599
vn -0.2420 -0.9378 -0.2489
vn -0.3513 -0.8628 -0.3634
vn -0.4226 -0.7933 -0.4382
vn -0.4735 -0.7308 -0.4917
vn -0.5130 -0.6727 -0.5332
vn -0.5459 -0.6162 -0.5677
vn -0.5750 -0.5580 -0.5984
vn -0.6020 -0.4945 -0.6269
vn -0.6282 -0.4204 -0.6546
vn -0.6540 -0.3277 -0.6819
vn -0.6776 -0.2020 -0.7071
vn -0.6914 -0.0172 -0.7223
vn -0.6657 0.2676 -0.6966
vn -0.5218 0.6538 -0.5479
vn -0.2233 0.9454 -0.2372
vn 0.0613 0.9963 0.0599
vn 0.2420 0.9378 0.2489
vn -0.6330 0.1017 0.7674
vn 0.3513 0.8628 0.3634
vn 0.4226 0.7933 0.4382
vn 0.6330 -0.1017 -0.7674
vt 0.250000 0.490000
vt 0.250000 0.250000
vt 0.296822 0.485388
vt 0.341844 0.471731
vt 0.383337 0.449553
vt 0.419706 0.419706
vt 0.449553 0.383337
vt 0.471731 0.341844
vt 0.485388 0.296822
vt 0.490000 0.250000
vt 0.485388 0.203178
vt 0.471731 0.158156
vt 0.449553 0.116663
vt 0.419706 0.080294
vt 0.383337 0.050447
vt 0.341844 0.028269
vt 0.296822 0.014612
vt 0.250000 0.010000
vt 0.203178 0.014612
vt 0.158156 0.028269
vt 0.116663 0.050447
vt 0.080294 0.080294
vt 0.050447 0.116663
vt 0.028269 0.158156
vt 0.014612 0.203178
vt 0.010000 0.250000
vt 0.014612 0.296822
vt 0.028269 0.341844
vt 0.050447 0.383337
vt 0.080294 0.419706
vt 0.116663 0.449553
vt 0.158156 0.471731
vt 0.750000 0.490000
vt 0.796822 0.485388
vt 0.841844 0.471731
vt 0.883337 0.449553
vt 0.919706 0.419706
vt 0.949553 0.383337
vt 0.971731 0.341844
vt 0.985388 0.296822
vt 0.990000 0.250000
vt 0.985388 0.203178
vt 0.971731 0.158156
vt 0.949553 0.116663
vt 0.919706 0.080294
vt 0.883337 0.050447
vt 0.841844 0.028269
vt 0.796822 0.014612
vt 0.750000 0.010000
vt 0.703178 0.014612
vt 0.658156 0.028269
vt 0.616663 0.050447
vt 0.580294 0.080294
vt 0.550447 0.116663
vt 0.528269 0.158156
vt 0.514612 0.203178
vt 0.510000 0.250000
vt 0.514612 0.296822
vt 0.528269 0.341844
vt 0.550447 0.383337
vt 0.580294 0.419706
vt 0.616663 0.449553
vt 0.658156 0.471731
vt 0.703178 0.485388
vt 0.203178 0.485388
vt 1.000000 0.500000
vt 1.000000 1.000000
vt 0.968750 1.000000
vt 0.968750 0.500000
vt 0.937500 1.000000
vt 0.937500 0.500000
vt 0.906250 1.000000
vt 0.906250 0.500000
vt 0.875000 1.000000
vt 0.875000 0.500000
vt 0.843750 1.000000
vt 0.843750 0.500000
vt 0.812500 1.000000
vt 0.812500 0.500000
vt 0.781250 1.000000
vt 0.781250 0.500000
vt 0.750000 1.000000
vt 0.750000 0.500000
vt 0.718750 1.000000
vt 0.718750 0.500000
vt 0.687500 1.000000
vt 0.687500 0.500000
vt 0.656250 1.000000
vt 0.656250 0.500000
vt 0.625000 1.000000
vt 0.625000 0.500000
vt 0.593750 1.000000
vt 0.593750 0.500000
vt 0.562500 1.000000
vt 0.562500 0.500000
vt 0.531250 1.000000
vt 0.531250 0.500000
vt 0.500000 1.000000
vt 0.500000 0.500000
vt 0.468750 1.000000
vt 0.468750 0.500000
vt 0.437500 1.000000
vt 0.437500 0.500000
vt 0.406250 1.000000
vt 0.406250 0.500000
vt 0.375000 1.000000
vt 0.375000 0.500000
vt 0.343750 1.000000
vt 0.343750 0.500000
vt 0.312500 1.000000
vt 0.312500 0.500000
vt 0.281250 1.000000
vt 0.281250 0.500000
vt 0.250000 1.000000
vt 0.250000 0.500000
vt 0.218750 1.000000
vt 0.218750 0.500000
vt 0.187500 1.000000
vt 0.187500 0.500000
vt 0.156250 1.000000
vt 0.156250 0.500000
vt 0.125000 1.000000
vt 0.125000 0.500000
vt 0.093750 1.000000
vt 0.093750 0.500000
vt 0.062500 1.000000
vt 0.062500 0.500000
vt 0.031250 1.000000
vt 0.031250 0.500000
vt 0.000000 1.000000
vt 0.000000 0.500000
s 0
g Cone_Material.001
usemtl Material.001
f 1/1/1 33/2/1 2/3/1
f 2/3/2 33/2/2 3/4/2
f 3/4/3 33/2/3 4/5/3
f 4/5/4 33/2/4 5/6/4
f 5/6/5 33/2/5 6/7/5
f 6/7/6 33/2/6 7/8/6
f 7/8/7 33/2/7 8/9/7
f 8/9/8 33/2/8 9/10/8
f 9/10/9 33/2/9 10/11/9
f 10/11/10 33/2/10 11/12/10
f 11/12/11 33/2/11 12/13/11
f 12/13/12 33/2/12 13/14/12
f 13/14/13 33/2/13 14/15/13
f 14/15/14 33/2/14 15/16/14
f 15/16/15 33/2/15 16/17/15
f 16/17/16 33/2/16 17/18/16
f 17/18/17 33/2/17 18/19/17
f 18/19/18 33/2/18 19/20/18
f 19/20/19 33/2/19 20/21/19
f 20/21/20 33/2/20 21/22/20
f 21/22/21 33/2/21 22/23/21
f 22/23/22 33/2/22 23/24/22
f 23/24/23 33/2/23 24/25/23
f 24/25/24 33/2/24 25/26/24
f 25/26/25 33/2/25 26/27/25
f 26/27/26 33/2/26 27/28/26
f 27/28/27 33/2/27 28/29/27
f 28/29/28 33/2/28 29/30/28
f 29/30/29 33/2/29 30/31/29
f 30/31/30 33/2/30 31/32/30
f 1/33/31 2/34/31 3/35/31 4/36/31 5/37/31 6/38/31 7/39/31 8/40/31 9/41/31 10/42/31 11/43/31 12/44/31 13/45/31 14/46/31 15/47/31 16/48/31 17/49/31 18/50/31 19/51/31 20/52/31 21/53/31 22/54/31 23/55/31 24/56/31 25/57/31 26/58/31 27/59/31 28/60/31 29/61/31 30/62/31 31/63/31 32/64/31
f 31/32/32 33/2/32 32/65/32
f 32/65/33 33/2/33 1/1/33
f 34/66/34 35/67/34 37/68/34 36/69/34
f 36/69/35 37/68/35 39/70/35 38/71/35
f 38/71/36 39/70/36 41/72/36 40/73/36
f 40/73/37 41/72/37 43/74/37 42/75/37
f 42/75/38 43/74/38 45/76/38 44/77/38
f 44/77/39 45/76/39 47/78/39 46/79/39
f 46/79/40 47/78/40 49/80/40 48/81/40
f 48/81/41 49/80/41 51/82/41 50/83/41
f 50/83/42 51/82/42 53/84/42 52/85/42
f 52/85/43 53/84/43 55/86/43 54/87/43
f 54/87/44 55/86/44 57/88/44 56/89/44
f 56/89/45 57/88/45 59/90/45 58/91/45
f 58/91/46 59/90/46 61/92/46 60/93/46
f 60/93/47 61/92/47 63/94/47 62/95/47
f 62/95/48 63/94/48 65/96/48 64/97/48
f 64/97/49 65/96/49 67/98/49 66/99/49
f 66/99/50 67/98/50 69/100/50 68/101/50
f 68/101/51 69/100/51 71/102/51 70/103/51
f 70/103/52 71/102/52 73/104/52 72/105/52
f 72/105/53 73/104/53 75/106/53 74/107/53
f 74/107/54 75/106/54 77/108/54 76/109/54
f 76/109/55 77/108/55 79/110/55 78/111/55
f 78/111/56 79/110/56 81/112/56 80/113/56
f 80/113/57 81/112/57 83/114/57 82/115/57
f 82/115/58 83/114/58 85/116/58 84/117/58
f 84/117/59 85/116/59 87/118/59 86/119/59
f 86/119/60 87/118/60 89/120/60 88/121/60
f 88/121/61 89/120/61 91/122/61 90/123/61
f 90/123/62 91/122/62 93/124/62 92/125/62
f 92/125/63 93/124/63 95/126/63 94/127/63
f 37/3/64 35/1/64 97/65/64 95/32/64 93/31/64 91/30/64 89/29/64 87/28/64 85/27/64 83/26/64 81/25/64 79/24/64 77/23/64 75/22/64 73/21/64 71/20/64 69/19/64 67/18/64 65/17/64 63/16/64 61/15/64 59/14/64 57/13/64 55/12/64 53/11/64 51/10/64 49/9/64 47/8/64 45/7/64 43/6/64 41/5/64 39/4/64
f 94/127/65 95/126/65 97/128/65 96/129/65
f 96/129/66 97/128/66 35/130/66 34/131/66
f 34/33/67 36/34/67 38/35/67 40/36/67 42/37/67 44/38/67 46/39/67 48/40/67 50/41/67 52/42/67 54/43/67 56/44/67 58/45/67 60/46/67 62/47/67 64/48/67 66/49/67 68/50/67 70/51/67 72/52/67 74/53/67 76/54/67 78/55/67 80/56/67 82/57/67 84/58/67 86/59/67 88/60/67 90/61/67 92/62/67 94/63/67 96/64/67
