# Blender 4.2.2 LTS
# www.blender.org
mtllib arrow2.mtl
o Cone
v 2.148380 -1.276703 -0.289225
v 2.098806 -1.269528 -0.338218
v 2.051001 -1.248279 -0.385190
v 2.006801 -1.213772 -0.428337
v 1.967906 -1.167333 -0.466001
v 1.935811 -1.110748 -0.496733
v 1.911748 -1.046190 -0.519354
v 1.896642 -0.976140 -0.532994
v 1.891075 -0.903291 -0.537128
v 1.895259 -0.830442 -0.531598
v 1.909034 -0.760392 -0.516616
v 1.931871 -0.695834 -0.492758
v 1.962892 -0.639249 -0.460942
v 2.000906 -0.592810 -0.422388
v 2.044450 -0.558303 -0.378580
v 2.091852 -0.537054 -0.331201
v 2.141290 -0.529879 -0.282070
v 2.190864 -0.537054 -0.233078
v 2.238670 -0.558303 -0.186105
v 2.282869 -0.592810 -0.142958
v 2.321764 -0.639249 -0.105295
v 2.353860 -0.695834 -0.074562
v 2.377923 -0.760392 -0.051941
v 2.393028 -0.830442 -0.038302
v 2.398596 -0.903291 -0.034168
v 2.394412 -0.976140 -0.039698
v 2.380636 -1.046190 -0.054679
v 2.357799 -1.110748 -0.078537
v 2.326778 -1.167333 -0.110354
v 2.288765 -1.213772 -0.148907
v 2.245221 -1.248279 -0.192716
v 2.197819 -1.269528 -0.240095
v 2.647754 -0.893655 -0.793127
v 1.279926 -1.028316 0.587105
v 2.193324 -1.021311 -0.334576
v 1.265148 -1.025877 0.572481
v 2.178546 -1.018872 -0.349200
v 1.250917 -1.018655 0.558440
v 2.164316 -1.011650 -0.363241
v 1.237781 -1.006927 0.545521
v 2.151179 -0.999922 -0.376159
v 1.226243 -0.991144 0.534222
v 2.139641 -0.984139 -0.387459
v 1.216747 -0.971912 0.524977
v 2.130145 -0.964907 -0.396704
v 1.209658 -0.949970 0.518139
v 2.123056 -0.942965 -0.403542
v 1.205248 -0.926162 0.513973
v 2.118647 -0.919157 -0.407707
v 1.203688 -0.901403 0.512639
v 2.117086 -0.894397 -0.409042
v 1.205036 -0.876643 0.514187
v 2.118434 -0.869638 -0.407493
v 1.209242 -0.852835 0.518559
v 2.122640 -0.845830 -0.403122
v 1.216143 -0.830893 0.525586
v 2.129541 -0.823888 -0.396095
v 1.225474 -0.811661 0.534998
v 2.138872 -0.804656 -0.386683
v 1.236877 -0.795878 0.546434
v 2.150275 -0.788873 -0.375247
v 1.249913 -0.784150 0.559453
v 2.163311 -0.777145 -0.362228
v 1.264082 -0.776928 0.573556
v 2.177480 -0.769923 -0.348124
v 1.278839 -0.774489 0.588202
v 2.192237 -0.767484 -0.333479
v 1.293616 -0.776928 0.602826
v 2.207015 -0.769923 -0.318855
v 1.307847 -0.784150 0.616866
v 2.221245 -0.777145 -0.304814
v 1.320984 -0.795878 0.629785
v 2.234382 -0.788873 -0.291896
v 1.332522 -0.811661 0.641084
v 2.245920 -0.804656 -0.280597
v 1.342018 -0.830893 0.650330
v 2.255416 -0.823888 -0.271351
v 1.349107 -0.852835 0.657167
v 2.262505 -0.845830 -0.264514
v 1.353516 -0.876643 0.661333
v 2.266914 -0.869638 -0.260348
v 1.355077 -0.901403 0.662667
v 2.268475 -0.894397 -0.259014
v 1.353728 -0.926162 0.661119
v 2.267126 -0.919157 -0.260562
v 1.349523 -0.949970 0.656747
v 2.262921 -0.942965 -0.264934
v 1.342622 -0.971912 0.649720
v 2.256020 -0.964907 -0.271960
v 1.333291 -0.991144 0.640308
v 2.246689 -0.984139 -0.281373
v 1.321888 -1.006927 0.628873
v 2.235286 -0.999922 -0.292808
v 1.308851 -1.018655 0.615853
v 2.222250 -1.011650 -0.305828
v 1.294683 -1.025877 0.601750
v 2.208081 -1.018872 -0.319931
vn 0.2685 -0.8763 -0.4000
vn 0.1412 -0.8401 -0.5237
vn 0.0215 -0.7699 -0.6378
vn -0.0853 -0.6697 -0.7377
vn -0.1753 -0.5448 -0.8200
vn -0.2453 -0.4007 -0.8827
vn -0.2935 -0.2433 -0.9245
vn -0.3186 -0.0780 -0.9447
vn -0.3202 0.0900 -0.9431
vn -0.2982 0.2553 -0.9197
vn -0.2530 0.4128 -0.8749
vn -0.1857 0.5570 -0.8095
vn -0.0982 0.6820 -0.7247
vn 0.0068 0.7823 -0.6229
vn 0.1251 0.8525 -0.5075
vn 0.2518 0.8887 -0.3831
vn 0.3808 0.8887 -0.2552
vn 0.5064 0.8525 -0.1297
vn 0.6228 0.7823 -0.0124
vn 0.7256 0.6820 0.0916
vn 0.8111 0.5570 0.1784
vn 0.8772 0.4128 0.2451
vn 0.9224 0.2553 0.2899
vn 0.9459 0.0900 0.3117
vn 0.9475 -0.0780 0.3101
vn 0.9271 -0.2433 0.2851
vn 0.8849 -0.4007 0.2373
vn 0.8216 -0.5448 0.1679
vn 0.7384 -0.6697 0.0787
vn 0.6376 -0.7699 -0.0273
vn -0.7038 -0.0135 0.7102
vn 0.5224 -0.8401 -0.1459
vn 0.3976 -0.8763 -0.2721
vn -0.0790 -0.9932 -0.0858
vn -0.2378 -0.9405 -0.2428
vn -0.3782 -0.8436 -0.3812
vn -0.4938 -0.7151 -0.4948
vn -0.5827 -0.5674 -0.5818
vn -0.6465 -0.4095 -0.6438
vn -0.6874 -0.2468 -0.6831
vn -0.7076 -0.0824 -0.7018
vn -0.7082 0.0824 -0.7012
vn -0.6893 0.2468 -0.6812
vn -0.6496 0.4095 -0.6406
vn -0.5870 0.5674 -0.5774
vn -0.4992 0.7151 -0.4893
vn -0.3846 0.8436 -0.3748
vn -0.2449 0.9405 -0.2356
vn -0.0865 0.9932 -0.0782
vn 0.0790 0.9932 0.0858
vn 0.2378 0.9405 0.2428
vn 0.3782 0.8436 0.3812
vn 0.4938 0.7151 0.4948
vn 0.5827 0.5674 0.5818
vn 0.6465 0.4095 0.6438
vn 0.6874 0.2468 0.6831
vn 0.7076 0.0824 0.7018
vn 0.7082 -0.0824 0.7012
vn 0.6893 -0.2468 0.6812
vn 0.6496 -0.4095 0.6406
vn 0.5870 -0.5674 0.5774
vn 0.4992 -0.7151 0.4893
vn 0.3846 -0.8436 0.3748
vn 0.7039 0.0061 -0.7103
vn 0.2449 -0.9405 0.2356
vn 0.0865 -0.9932 0.0782
vn -0.7039 -0.0061 0.7103
vt 0.250000 0.490000
vt 0.250000 0.250000
vt 0.296822 0.485388
vt 0.341844 0.471731
vt 0.383337 0.449553
vt 0.419706 0.419706
vt 0.449553 0.383337
vt 0.471731 0.341844
vt 0.485388 0.296822
vt 0.490000 0.250000
vt 0.485388 0.203178
vt 0.471731 0.158156
vt 0.449553 0.116663
vt 0.419706 0.080294
vt 0.383337 0.050447
vt 0.341844 0.028269
vt 0.296822 0.014612
vt 0.250000 0.010000
vt 0.203178 0.014612
vt 0.158156 0.028269
vt 0.116663 0.050447
vt 0.080294 0.080294
vt 0.050447 0.116663
vt 0.028269 0.158156
vt 0.014612 0.203178
vt 0.010000 0.250000
vt 0.014612 0.296822
vt 0.028269 0.341844
vt 0.050447 0.383337
vt 0.080294 0.419706
vt 0.116663 0.449553
vt 0.158156 0.471731
vt 0.750000 0.490000
vt 0.796822 0.485388
vt 0.841844 0.471731
vt 0.883337 0.449553
vt 0.919706 0.419706
vt 0.949553 0.383337
vt 0.971731 0.341844
vt 0.985388 0.296822
vt 0.990000 0.250000
vt 0.985388 0.203178
vt 0.971731 0.158156
vt 0.949553 0.116663
vt 0.919706 0.080294
vt 0.883337 0.050447
vt 0.841844 0.028269
vt 0.796822 0.014612
vt 0.750000 0.010000
vt 0.703178 0.014612
vt 0.658156 0.028269
vt 0.616663 0.050447
vt 0.580294 0.080294
vt 0.550447 0.116663
vt 0.528269 0.158156
vt 0.514612 0.203178
vt 0.510000 0.250000
vt 0.514612 0.296822
vt 0.528269 0.341844
vt 0.550447 0.383337
vt 0.580294 0.419706
vt 0.616663 0.449553
vt 0.658156 0.471731
vt 0.703178 0.485388
vt 0.203178 0.485388
vt 1.000000 0.500000
vt 1.000000 1.000000
vt 0.968750 1.000000
vt 0.968750 0.500000
vt 0.937500 1.000000
vt 0.937500 0.500000
vt 0.906250 1.000000
vt 0.906250 0.500000
vt 0.875000 1.000000
vt 0.875000 0.500000
vt 0.843750 1.000000
vt 0.843750 0.500000
vt 0.812500 1.000000
vt 0.812500 0.500000
vt 0.781250 1.000000
vt 0.781250 0.500000
vt 0.750000 1.000000
vt 0.750000 0.500000
vt 0.718750 1.000000
vt 0.718750 0.500000
vt 0.687500 1.000000
vt 0.687500 0.500000
vt 0.656250 1.000000
vt 0.656250 0.500000
vt 0.625000 1.000000
vt 0.625000 0.500000
vt 0.593750 1.000000
vt 0.593750 0.500000
vt 0.562500 1.000000
vt 0.562500 0.500000
vt 0.531250 1.000000
vt 0.531250 0.500000
vt 0.500000 1.000000
vt 0.500000 0.500000
vt 0.468750 1.000000
vt 0.468750 0.500000
vt 0.437500 1.000000
vt 0.437500 0.500000
vt 0.406250 1.000000
vt 0.406250 0.500000
vt 0.375000 1.000000
vt 0.375000 0.500000
vt 0.343750 1.000000
vt 0.343750 0.500000
vt 0.312500 1.000000
vt 0.312500 0.500000
vt 0.281250 1.000000
vt 0.281250 0.500000
vt 0.250000 1.000000
vt 0.250000 0.500000
vt 0.218750 1.000000
vt 0.218750 0.500000
vt 0.187500 1.000000
vt 0.187500 0.500000
vt 0.156250 1.000000
vt 0.156250 0.500000
vt 0.125000 1.000000
vt 0.125000 0.500000
vt 0.093750 1.000000
vt 0.093750 0.500000
vt 0.062500 1.000000
vt 0.062500 0.500000
vt 0.031250 1.000000
vt 0.031250 0.500000
vt 0.000000 1.000000
vt 0.000000 0.500000
s 0
usemtl Material.001
f 1/1/1 2/3/1 33/2/1
f 2/3/2 3/4/2 33/2/2
f 3/4/3 4/5/3 33/2/3
f 4/5/4 5/6/4 33/2/4
f 5/6/5 6/7/5 33/2/5
f 6/7/6 7/8/6 33/2/6
f 7/8/7 8/9/7 33/2/7
f 8/9/8 9/10/8 33/2/8
f 9/10/9 10/11/9 33/2/9
f 10/11/10 11/12/10 33/2/10
f 11/12/11 12/13/11 33/2/11
f 12/13/12 13/14/12 33/2/12
f 13/14/13 14/15/13 33/2/13
f 14/15/14 15/16/14 33/2/14
f 15/16/15 16/17/15 33/2/15
f 16/17/16 17/18/16 33/2/16
f 17/18/17 18/19/17 33/2/17
f 18/19/18 19/20/18 33/2/18
f 19/20/19 20/21/19 33/2/19
f 20/21/20 21/22/20 33/2/20
f 21/22/21 22/23/21 33/2/21
f 22/23/22 23/24/22 33/2/22
f 23/24/23 24/25/23 33/2/23
f 24/25/24 25/26/24 33/2/24
f 25/26/25 26/27/25 33/2/25
f 26/27/26 27/28/26 33/2/26
f 27/28/27 28/29/27 33/2/27
f 28/29/28 29/30/28 33/2/28
f 29/30/29 30/31/29 33/2/29
f 30/31/30 31/32/30 33/2/30
f 1/33/31 32/64/31 31/63/31 30/62/31 29/61/31 28/60/31 27/59/31 26/58/31 25/57/31 24/56/31 23/55/31 22/54/31 21/53/31 20/52/31 19/51/31 18/50/31 17/49/31 16/48/31 15/47/31 14/46/31 13/45/31 12/44/31 11/43/31 10/42/31 9/41/31 8/40/31 7/39/31 6/38/31 5/37/31 4/36/31 3/35/31 2/34/31
f 31/32/32 32/65/32 33/2/32
f 32/65/33 1/1/33 33/2/33
f 34/66/34 36/69/34 37/68/34 35/67/34
f 36/69/35 38/71/35 39/70/35 37/68/35
f 38/71/36 40/73/36 41/72/36 39/70/36
f 40/73/37 42/75/37 43/74/37 41/72/37
f 42/75/38 44/77/38 45/76/38 43/74/38
f 44/77/39 46/79/39 47/78/39 45/76/39
f 46/79/40 48/81/40 49/80/40 47/78/40
f 48/81/41 50/83/41 51/82/41 49/80/41
f 50/83/42 52/85/42 53/84/42 51/82/42
f 52/85/43 54/87/43 55/86/43 53/84/43
f 54/87/44 56/89/44 57/88/44 55/86/44
f 56/89/45 58/91/45 59/90/45 57/88/45
f 58/91/46 60/93/46 61/92/46 59/90/46
f 60/93/47 62/95/47 63/94/47 61/92/47
f 62/95/48 64/97/48 65/96/48 63/94/48
f 64/97/49 66/99/49 67/98/49 65/96/49
f 66/99/50 68/101/50 69/100/50 67/98/50
f 68/101/51 70/103/51 71/102/51 69/100/51
f 70/103/52 72/105/52 73/104/52 71/102/52
f 72/105/53 74/107/53 75/106/53 73/104/53
f 74/107/54 76/109/54 77/108/54 75/106/54
f 76/109/55 78/111/55 79/110/55 77/108/55
f 78/111/56 80/113/56 81/112/56 79/110/56
f 80/113/57 82/115/57 83/114/57 81/112/57
f 82/115/58 84/117/58 85/116/58 83/114/58
f 84/117/59 86/119/59 87/118/59 85/116/59
f 86/119/60 88/121/60 89/120/60 87/118/60
f 88/121/61 90/123/61 91/122/61 89/120/61
f 90/123/62 92/125/62 93/124/62 91/122/62
f 92/125/63 94/127/63 95/126/63 93/124/63
f 37/3/64 39/4/64 41/5/64 43/6/64 45/7/64 47/8/64 49/9/64 51/10/64 53/11/64 55/12/64 57/13/64 59/14/64 61/15/64 63/16/64 65/17/64 67/18/64 69/19/64 71/20/64 73/21/64 75/22/64 77/23/64 79/24/64 81/25/64 83/26/64 85/27/64 87/28/64 89/29/64 91/30/64 93/31/64 95/32/64 97/65/64 35/1/64
f 94/127/65 96/129/65 97/128/65 95/126/65
f 96/129/66 34/131/66 35/130/66 97/128/66
f 34/33/67 96/64/67 94/63/67 92/62/67 90/61/67 88/60/67 86/59/67 84/58/67 82/57/67 80/56/67 78/55/67 76/54/67 74/53/67 72/52/67 70/51/67 68/50/67 66/49/67 64/48/67 62/47/67 60/46/67 58/45/67 56/44/67 54/43/67 52/42/67 50/41/67 48/40/67 46/39/67 44/38/67 42/37/67 40/36/67 38/35/67 36/34/67
